# xmcd CD database file
#
# Track frame offsets:
#	187
#	17557
#	59495
#	85432
#	101360
#	163897
#
# Disc length: 2364 seconds
#
# Revision: 0
# Processed by: cddbd v1.5.1PL2 Copyright (c) Steve Scherf et al.
# Submitted via: CDex 1.51
#
DISCID=46093a06
DTITLE=Quincy Jones - The Great Wide World Of Quincy Jones
DYEAR=1961
DGENRE=Jazz
TTITLE0=Air Mail Special
TTITLE1=Banjaluka
TTITLE2=Bess, You Is My Woman Now
TTITLE3=Solitude
TTITLE4=Stolen Moments
TTITLE5=Moanin'
EXTD=YEAR: 1961
EXTT0=
EXTT1=
EXTT2=
EXTT3=
EXTT4=
EXTT5=
PLAYORDER=
